<svg width="24px" height="15px" viewBox="0 0 24 15" version="1.1" xmlns="http://www.w3.org/2000/svg">
  <path d="M1.977,11.77 C-0.69,9.493 -0.628,4.691 1.977,2.413 C2.919,3.057 3.522,4.075 4.49,4.691 C3.338,6.291 3.344,7.892 4.486,9.494 C3.522,10.111 2.918,11.126 1.977,11.77 Z" fill="#FDBA18"/>
  <path d="M12.257,12.114 C10.49,10.481 9.772,8.456 10.139,6.094 C10.59,3.184 12.278,1.201 15.085,0.416 C17.65,-0.302 20.049,0.199 21.963,2.235 C21.079,2.978 20.256,3.782 19.529,4.681 C18.488,3.827 17.319,3.435 16,3.856 C13.596,4.623 12.954,7.097 14.506,9.5 C14.265,9.775 14.013,10.041 13.785,10.326 C13.295,10.939 12.511,11.3 12.257,12.114 Z" fill="#FCD93D"/>
  <path d="M19.529,4.682 C20.256,3.783 21.079,2.979 21.963,2.236 C24.666,5.019 24.664,9.267 21.958,12 C19.31,14.674 15.022,14.725 12.257,12.115 C12.511,11.301 13.295,10.94 13.785,10.327 C14.013,10.042 14.265,9.775 14.506,9.501 C15.559,10.417 16.76,10.769 18.106,10.331 C20.502,9.551 21.151,6.927 19.529,4.682 Z" fill="#FDBA18"/>
  <path d="M4.49,4.691 C3.522,4.075 2.919,3.057 1.977,2.413 C4.186,0.015 7.698,-0.529 10.453,1.058 C11.008,1.378 11.172,1.664 10.738,2.186 C10.581,2.374 10.48,2.608 10.347,2.817 C10.048,3.287 9.838,3.884 9.418,4.188 C8.933,4.539 8.523,3.847 8.021,3.746 C6.673,3.475 5.509,3.787 4.49,4.691 Z" fill="#FCD93D"/>
  <path d="M1.977,11.77 C2.918,11.126 3.522,10.111 4.486,9.493 C5.859,10.645 7.336,10.926 8.936,9.992 C9.268,9.798 9.439,9.904 9.609,10.182 C9.995,10.817 10.362,11.467 10.79,12.072 C11.13,12.552 11.012,12.787 10.537,13.078 C7.84,14.73 4.205,14.188 1.977,11.77 Z" fill="#FCD93D"/>
</svg>